<svg width="1200" height="400" viewBox="0 0 1200 400" xmlns="http://www.w3.org/2000/svg" role="img" aria-label="SafeWork monograma SW">
  <defs>
    <linearGradient id="bg3" x1="0" y1="0" x2="1" y2="1">
      <stop offset="0%" stop-color="#0F172A" />
      <stop offset="100%" stop-color="#1E293B" />
    </linearGradient>
    <linearGradient id="sw3" x1="0" y1="0" x2="1" y2="1">
      <stop offset="0%" stop-color="#38BDF8" />
      <stop offset="100%" stop-color="#2563EB" />
    </linearGradient>
  </defs>

  <rect x="20" y="20" width="1160" height="360" rx="28" fill="url(#bg3)" />

  <g transform="translate(88,58)">
    <path d="M140 0L260 44V148C260 226 206 292 140 310C74 292 20 226 20 148V44L140 0Z" fill="#0B1220" stroke="#64748B" stroke-width="10"/>
    <path d="M71 104C71 79 89 62 115 62H170C194 62 212 79 212 102C212 121 200 136 178 142L149 150L183 164C204 172 214 185 214 204C214 232 192 250 160 250H100C74 250 54 232 54 206" fill="none" stroke="url(#sw3)" stroke-width="20" stroke-linecap="round" stroke-linejoin="round"/>
    <path d="M86 84L112 230M166 84L192 230" stroke="#0EA5E9" stroke-width="10" stroke-linecap="round" opacity="0.35"/>
  </g>

  <g transform="translate(390,114)">
    <text x="0" y="92" font-size="90" font-family="Segoe UI, Arial, sans-serif" font-weight="800" fill="#E2E8F0" letter-spacing="1">SafeWork</text>
    <text x="2" y="144" font-size="34" font-family="Segoe UI, Arial, sans-serif" font-weight="600" fill="#93C5FD" letter-spacing="2">MONITORAMENTO E CONFORMIDADE SST</text>
    <rect x="0" y="166" width="710" height="8" rx="4" fill="url(#sw3)"/>
  </g>
</svg>
