<svg width="1200" height="400" viewBox="0 0 1200 400" xmlns="http://www.w3.org/2000/svg" role="img" aria-label="SafeWork capacete com check">
  <defs>
    <linearGradient id="bg2" x1="0" y1="0" x2="1" y2="1">
      <stop offset="0%" stop-color="#0B1220" />
      <stop offset="100%" stop-color="#1F2A44" />
    </linearGradient>
    <linearGradient id="helmet2" x1="0" y1="0" x2="0" y2="1">
      <stop offset="0%" stop-color="#FCD34D" />
      <stop offset="100%" stop-color="#F59E0B" />
    </linearGradient>
  </defs>

  <rect x="20" y="20" width="1160" height="360" rx="28" fill="url(#bg2)" />

  <g transform="translate(78,72)">
    <circle cx="138" cy="128" r="122" fill="#0F172A" stroke="#334155" stroke-width="10"/>
    <path d="M36 152C36 85 82 44 138 44C194 44 240 85 240 152H36Z" fill="url(#helmet2)" stroke="#D97706" stroke-width="8"/>
    <rect x="24" y="150" width="228" height="30" rx="10" fill="#B45309"/>
    <rect x="126" y="56" width="24" height="92" rx="8" fill="#FBBF24"/>

    <circle cx="220" cy="192" r="54" fill="#15803D" stroke="#14532D" stroke-width="8"/>
    <path d="M192 192L214 214L252 172" fill="none" stroke="#F8FAFC" stroke-width="14" stroke-linecap="round" stroke-linejoin="round"/>
  </g>

  <g transform="translate(390,108)">
    <text x="0" y="96" font-size="94" font-family="Segoe UI, Arial, sans-serif" font-weight="900" fill="#FFFFFF" letter-spacing="1">SAFE</text>
    <text x="255" y="96" font-size="94" font-family="Segoe UI, Arial, sans-serif" font-weight="900" fill="#F59E0B" letter-spacing="1">WORK</text>
    <text x="2" y="148" font-size="34" font-family="Segoe UI, Arial, sans-serif" font-weight="600" fill="#CBD5E1" letter-spacing="2">GESTAO OPERACIONAL DE SEGURANCA</text>
    <rect x="0" y="170" width="730" height="8" rx="4" fill="#F59E0B" opacity="0.9"/>
  </g>
</svg>
